<?xml version="1.0" encoding="UTF-8" standalone="no"?>
<svg width="215px" height="143px" viewBox="0 0 215 143" version="1.1" xmlns="http://www.w3.org/2000/svg" xmlns:xlink="http://www.w3.org/1999/xlink" xmlns:sketch="http://www.bohemiancoding.com/sketch/ns">
    <!-- Generator: Sketch 3.2.2 (9983) - http://www.bohemiancoding.com/sketch -->
    <title>Shape</title>
    <desc>Created with Sketch.</desc>
    <defs></defs>
    <g id="Page-1" stroke="none" stroke-width="1" fill="none" fill-rule="evenodd" sketch:type="MSPage">
        <g id="Group" sketch:type="MSLayerGroup" transform="translate(106.250000, 79.000000) scale(1, -1) translate(-106.250000, -79.000000) translate(-55.250000, -82.500000)" fill="#FFFFFF">
            <g transform="translate(0.821912, 0.192923)" id="Shape" sketch:type="MSShapeGroup">
                <g transform="translate(0.976034, 0.360251)">
                    <g transform="translate(161.000000, 168.331498) scale(1, -1) translate(-161.000000, -168.331498) translate(54.000000, 96.831498)">
                        <path d="M126.082376,142.325204 L87.7589772,142.325204 L87.7589772,60.873506 C87.7588487,50.8116622 86.0407027,43.2860273 82.6073655,38.2965375 C79.2565697,33.2241197 73.9373058,30.687847 66.6497343,30.6877195 C56.8489215,30.6878311 49.7287133,34.2635423 45.2891416,41.4149009 C40.8494416,48.5664508 38.6295915,60.3330547 38.6296558,76.7147925 L38.6296558,142.325197 L0.306228486,142.325197 L0.306228486,2.87190635 L29.5828314,2.87190635 L34.7345074,20.7089664 L36.8706277,20.7089664 C40.6400722,14.3060647 46.0849468,9.31667059 53.2051872,5.74081593 C60.3252991,2.08206508 68.492595,0.252641827 77.7070426,0.252482411 C98.73262,0.252622697 112.972844,7.0714273 120.42826,20.7089664 L123.820808,20.7089664 C127.590092,14.2228816 133.118761,9.19194371 140.406814,5.61608905 C147.778051,2.04048945 156.071054,0.252641827 165.285502,0.252514294 C181.200899,0.25265458 193.221433,4.32730837 201.347233,12.4765139 C209.556089,20.5427914 213.660677,33.5151842 213.660998,51.3937114 L213.660998,142.325239 L175.211925,142.325239 L175.211925,60.8735411 C175.211732,50.8116973 173.493651,43.2860624 170.060313,38.2965726 C166.709518,33.2241548 161.390254,30.6878821 154.102522,30.6877546 C144.720422,30.6878662 137.684168,34.0141236 132.993118,40.6665109 C128.385894,47.3191214 126.082122,57.8799684 126.082443,72.3491157 L126.082443,142.325229"></path>
                    </g>
                </g>
            </g>
        </g>
    </g>
</svg>