<svg xmlns="http://www.w3.org/2000/svg" width="42" height="42"><defs><linearGradient><stop offset="0" stop-color="#81c6e8"/><stop offset="1" stop-color="#81c6e8" stop-opacity="0"/></linearGradient><clipPath><path d="M0 .94C0 .975.026 1 .06 1h.88C.975 1 1 .974 1 .94V.06C1 .025.974 0 .94 0H.06C.025 0 0 .026 0 .06v.88z"/></clipPath></defs><g transform="matrix(41.984 0 0 -41.984 -26.236 45.337)" fill="#f00"><rect width=".999" height=".999" rx=".06" x=".625" y="-1.079" transform="scale(1 -1)" fill="#81c6e8"/><path d="M1.185.383h-.12v.254c0 .032-.005.055-.016.07-.012.017-.028.025-.05.025C.967.732.945.722.93.698.918.676.912.638.912.588V.383H.79V.82h.09L.9.762h.006c.012.02.03.035.05.047.023.01.05.017.077.017.066 0 .11-.02.134-.064h.01c.012.02.03.036.052.047.022.01.048.017.077.017.05 0 .087-.013.113-.038.025-.027.038-.067.038-.123V.383h-.12v.254c0 .032-.005.055-.016.07-.01.017-.027.025-.05.025-.03 0-.05-.01-.066-.03-.014-.022-.02-.055-.02-.1v-.22" fill="#fff"/></g></svg>