<?xml version="1.0" encoding="utf-8"?>
<!-- Generated by IcoMoon.io -->
<!DOCTYPE svg PUBLIC "-//W3C//DTD SVG 1.1//EN" "http://www.w3.org/Graphics/SVG/1.1/DTD/svg11.dtd">
<svg version="1.1" xmlns="http://www.w3.org/2000/svg" xmlns:xlink="http://www.w3.org/1999/xlink" width="21" height="21" viewBox="0 0 1006 1024"><g id="icomoon-ignore">
</g>
<path fill="#111" d="M898.194 355.84h-790.674c-28.965 0-52.663-23.698-52.663-52.663v0c0-28.965 23.698-52.663 52.663-52.663h790.674c28.965 0 52.663 23.698 52.663 52.663v0c0 28.965-23.698 52.663-52.663 52.663zM898.194 603.063h-790.674c-28.965 0-52.663-23.698-52.663-52.663v0c0-28.965 23.698-52.663 52.663-52.663h790.674c28.965 0 52.663 23.698 52.663 52.663v0c0 28.965-23.698 52.663-52.663 52.663zM898.194 850.286h-790.674c-28.965 0-52.663-23.698-52.663-52.663v0c0-28.965 23.698-52.663 52.663-52.663h790.674c28.965 0 52.663 23.698 52.663 52.663v0c0 28.965-23.698 52.663-52.663 52.663z"></path>
</svg>
