<svg xmlns:svg="http://www.w3.org/2000/svg" xmlns="http://www.w3.org/2000/svg" version="1.1" width="320" height="320" xml:space="preserve"><defs><linearGradient><stop offset="0" style="stop-color:#81c6e8;stop-opacity:1"/><stop offset="1" style="stop-color:#81c6e8;stop-opacity:0"/></linearGradient><clipPath clipPathUnits="userSpaceOnUse"><path d="m0.0000019 0.9414032c0 0.0323612 0.0262337 0.0585949 0.0585949 0.0585949l0.8828064 0c0.0323612 0 0.0585949-0.0262337 0.0585949-0.0585949l0-0.8828064C0.9999981 0.0262356 0.9737644 0.0000019 0.9414032 0.0000019l-0.8828064 0C0.0262356 0.0000019 0.0000019 0.0262356 0.0000019 0.0585968l0 0.8828064z" clip-rule="evenodd"/></clipPath></defs><g transform="matrix(1.25,0,0,-1.25,0,320)"><g transform="translate(-175.34247,-66.045662)"><g transform="matrix(256,0,0,256,15.780827,45.288201)" fill="#f00"><rect width="0.99931318" height="0.999313" x="0.62490207" y="-1.0787826" transform="scale(1,-1)" rx="0.059903231" fill="#81c6e8"/><g transform="scale(1.003665,-0.99634843)" style="fill:#fff;"><path d="m1.1803066-0.38423523-0.1193233 0 0-0.25546942c-4e-7-0.0315585-0.00535-0.0551623-0.01604-0.0708116-0.010433-0.0159094-0.026995-0.0238643-0.0496855-0.0238647-0.0305157 3.5e-7-0.0526851 0.0112154-0.0665081 0.0336453-0.0138234 0.0224305-0.0207351 0.0593359-0.0207349 0.11071645l0 0.20578395-0.11932339 0 0-0.43738869 0.0911553 0 0.0160402 0.0559451 0.006651 0c0.0117365-0.0200824 0.0286896-0.0357314 0.0508591-0.0469469 0.0221691-0.0114755 0.0475987-0.0172134 0.0762887-0.0172139 0.065465 4.4e-7 0.1098032 0.0213873 0.1330163 0.0641608l0.010563 0c0.011736-0.0203433 0.02895-0.0361226 0.051642-0.0473381 0.022951-0.0112147 0.048772-0.0168222 0.077462-0.0168226 0.049554 4.4e-7 0.086981 0.0127804 0.1122814 0.03834 0.025559 0.0252995 0.038339 0.0659868 0.03834 0.12206196l0 0.28520246-0.1197146 0 0-0.25546942c-6e-7-0.0315585-0.00535-0.0551623-0.01604-0.0708116-0.010433-0.0159094-0.026995-0.0238643-0.049686-0.0238647-0.029212 3.5e-7-0.05112 0.010433-0.065726 0.0312979-0.014345 0.0208656-0.021518 0.0539892-0.021517 0.099371l0 0.21947679"/></g></g></g></g></svg>