<?xml version="1.0" standalone="no"?>
<!DOCTYPE svg PUBLIC "-//W3C//DTD SVG 20010904//EN"
 "http://www.w3.org/TR/2001/REC-SVG-20010904/DTD/svg10.dtd">
<svg version="1.0" xmlns="http://www.w3.org/2000/svg"
 width="260.000000pt" height="260.000000pt" viewBox="0 0 260.000000 260.000000"
 preserveAspectRatio="xMidYMid meet">
<metadata>
Created by potrace 1.11, written by Peter Selinger 2001-2013
</metadata>
<g transform="translate(0.000000,260.000000) scale(0.100000,-0.100000)"
fill="#000000" stroke="none">
<path d="M200 1300 l0 -1100 275 0 275 0 0 1100 0 1100 -275 0 -275 0 0 -1100z"/>
<path d="M1029 2393 c-6 -40 -2 -1366 4 -1370 13 -8 527 -6 535 2 4 4 7 315 7
691 l0 684 -272 0 c-150 0 -274 -3 -274 -7z"/>
<path d="M1850 1300 l0 -1100 275 0 275 0 0 1100 0 1100 -275 0 -275 0 0
-1100z"/>
</g>
</svg>
