<?xml version="1.0" standalone="no"?>
<!DOCTYPE svg PUBLIC "-//W3C//DTD SVG 20010904//EN"
 "http://www.w3.org/TR/2001/REC-SVG-20010904/DTD/svg10.dtd">
<svg version="1.0" xmlns="http://www.w3.org/2000/svg"
 width="240.000000pt" height="240.000000pt" viewBox="0 0 240.000000 240.000000"
 preserveAspectRatio="xMidYMid meet">
<metadata>
Created by potrace 1.11, written by Peter Selinger 2001-2013
</metadata>
<g transform="translate(0.000000,240.000000) scale(0.100000,-0.100000)"
fill="#000000" stroke="none">
<path d="M0 1200 l0 -1200 300 0 300 0 0 23 c1 28 1 2290 0 2340 l0 37 -300 0
-300 0 0 -1200z"/>
<path d="M900 1650 l0 -750 300 1 300 0 0 750 0 749 -300 0 -300 0 0 -750z"/>
<path d="M1797 1237 c1 -639 2 -1179 3 -1199 l0 -38 300 0 300 0 0 1200 0
1200 -302 0 -303 0 2 -1163z"/>
</g>
</svg>
